# xmcd
#
# Track frame offsets:
#	150
#	22350
#	37997
#	52001
#	63402
#	79925
#	94602
#	109011
#	127315
#	144111
#	163028
#	178738
#	195596
#	215834
#	235020
#	248754
#
# Disc length: 3623 seconds
#
# Revision: 0
# Processed by: cddbd v1.5.2PL0 Copyright (c) Steve Scherf et al.
# Submitted via: audiograbber 1.83.01
#
DISCID=e50e2510
DTITLE=Various Artist - Nummer 1 Hits 1970-1980
DYEAR=1979
DGENRE=Pop
TTITLE0=Peter Maffay  - Du
TTITLE1=Mungo Jerry  - In The Summertrime
TTITLE2=The Sweet  - Co-Co
TTITLE3=Hot Butter  - Popcorn
TTITLE4=Les Humphries Singers  - Mama Loo
TTITLE5=Bernd Clüver  - Der Junge mit der Mundharmonika
TTITLE6=Carl Douglas  - Kung Fu Fighting
TTITLE7=Udo Jürgens  - Griechischer Wein
TTITLE8=Penny McLean  - Lady Bump
TTITLE9=Frank Farian  - Rocky
TTITLE10=Boney M.  - Daddy Cool
TTITLE11=Oliver Onions  - Orzowei
TTITLE12=Baccara  - Yes Sir, I Can Boogie
TTITLE13=Boney M.  - Rivers Of Babylon
TTITLE14=Dschinghis Khan  - Dschingis Khan
TTITLE15=Peter Maffay  - So bist du
EXTD=
EXTT0=
EXTT1=
EXTT2=
EXTT3=
EXTT4=
EXTT5=
EXTT6=
EXTT7=
EXTT8=
EXTT9=
EXTT10=
EXTT11=
EXTT12=
EXTT13=
EXTT14=
EXTT15=
PLAYORDER=
